<svg width="23" height="23" xmlns="http://www.w3.org/2000/svg" fill="none">
 <mask fill="white" id="path-1-inside-1_25368_710">
  <path id="svg_1" d="m20.3647,1.43593c-2.3547,-2.18906 -5.8566,-1.79531 -8.0179,0.6375l-0.8465,0.95156l-0.8465,-0.95156c-2.15703,-2.43281 -5.66328,-2.82656 -8.01797,-0.6375c-2.69844,2.5125 -2.84023,7.02188 -0.42539,9.74527l8.31446,9.3657c0.5371,0.6047 1.4094,0.6047 1.9465,0l8.3144,-9.3657c2.4192,-2.72339 2.2774,-7.23277 -0.4211,-9.74527z"/>
 </mask>

 <g>
  <title>Layer 1</title>
  <path id="svg_2" mask="url(#path-1-inside-1_25368_710)" stroke-width="2" stroke="#101010" d="m20.36473,1.43593c-2.3547,-2.18906 -5.8566,-1.79531 -8.0179,0.6375l-0.8465,0.95156l-0.8465,-0.95156c-2.15703,-2.43281 -5.66328,-2.82656 -8.01797,-0.6375c-2.69844,2.5125 -2.84023,7.02188 -0.42539,9.74527l8.31446,9.3657c0.5371,0.6047 1.4094,0.6047 1.9465,0l8.3144,-9.3657c2.4192,-2.72339 2.2774,-7.23277 -0.4211,-9.74527z"/>
 </g>
</svg>